<svg id="svg" xmlns="http://www.w3.org/2000/svg" xmlns:xlink="http://www.w3.org/1999/xlink" width="400" height="400" viewBox="0, 0, 400,400"><g id="svgg"><path id="path0" d="M130.446 57.705 C 130.403 57.748,125.535 57.842,119.628 57.915 C 113.720 57.987,108.623 58.076,108.301 58.112 C 107.979 58.148,96.465 58.195,82.715 58.217 C 68.965 58.239,56.353 58.332,54.688 58.422 C 50.920 58.627,40.741 58.688,40.450 58.508 C 40.331 58.435,40.234 58.461,40.234 58.566 C 40.234 58.671,41.091 58.948,42.139 59.182 C 47.092 60.287,60.043 64.243,66.406 66.595 C 67.319 66.932,68.770 67.460,69.629 67.768 C 72.519 68.802,75.670 70.055,77.637 70.952 C 78.711 71.441,81.831 72.809,84.570 73.991 C 87.310 75.172,90.649 76.674,91.992 77.327 C 93.335 77.980,94.567 78.514,94.729 78.515 C 95.098 78.516,97.088 79.235,97.288 79.439 C 97.369 79.522,97.658 80.557,97.930 81.738 C 98.612 84.700,99.159 86.460,100.792 90.953 C 103.344 97.974,131.060 173.446,131.864 175.563 C 132.297 176.704,132.670 177.725,132.694 177.832 C 132.796 178.302,133.267 179.607,133.398 179.785 C 133.477 179.893,133.856 180.859,134.240 181.934 C 134.624 183.008,135.259 184.678,135.651 185.645 C 136.042 186.611,136.746 188.457,137.214 189.746 C 137.682 191.035,138.649 193.584,139.362 195.410 C 141.712 201.432,145.260 211.287,145.936 213.672 C 146.113 214.294,147.184 217.287,152.089 230.852 C 158.141 247.588,162.038 253.673,169.512 258.058 C 176.719 262.286,188.318 262.655,195.996 258.901 C 204.871 254.562,208.778 248.575,216.015 228.223 C 217.221 224.830,237.042 171.190,245.280 149.023 C 257.061 117.324,264.348 97.380,266.154 91.895 C 267.391 88.135,268.692 84.312,269.044 83.398 C 269.396 82.485,269.796 81.228,269.934 80.604 C 270.086 79.917,270.319 79.398,270.526 79.287 C 270.714 79.186,270.985 78.994,271.127 78.859 C 271.664 78.350,279.233 74.845,282.712 73.492 C 283.677 73.117,284.820 72.649,285.251 72.452 C 287.571 71.392,298.720 67.154,304.492 65.139 C 306.265 64.520,308.506 63.727,309.473 63.376 C 310.923 62.850,322.537 59.043,324.756 58.366 C 325.742 58.066,325.510 57.797,324.365 57.913 C 321.513 58.203,309.319 58.428,292.383 58.503 C 272.781 58.590,251.874 58.771,249.512 58.874 C 248.760 58.906,245.728 58.999,242.773 59.079 C 236.587 59.247,237.134 59.044,236.326 61.482 C 235.980 62.525,235.062 65.137,234.287 67.285 C 232.981 70.902,232.116 73.562,231.936 74.512 C 231.771 75.383,219.469 111.643,219.246 111.914 C 219.113 112.075,218.849 112.778,218.659 113.477 C 217.976 115.980,208.407 145.022,206.464 150.488 C 205.815 152.314,200.631 167.651,194.944 184.570 C 186.223 210.516,184.575 215.256,184.416 214.844 C 183.785 213.208,172.005 178.133,171.953 177.734 C 171.865 177.056,170.936 174.259,168.161 166.309 C 166.848 162.549,165.211 157.759,164.523 155.664 C 163.834 153.569,163.148 151.592,162.997 151.269 C 162.846 150.947,157.233 134.424,150.523 114.551 C 143.813 94.678,137.931 77.319,137.452 75.977 C 136.973 74.634,136.272 72.612,135.896 71.484 C 135.519 70.356,134.500 67.705,133.632 65.592 C 132.763 63.479,131.777 60.865,131.441 59.784 C 130.880 57.976,130.652 57.499,130.446 57.705 M302.539 71.482 C 301.733 71.791,300.107 72.306,298.926 72.627 C 294.362 73.869,285.752 76.692,283.594 77.654 C 283.218 77.821,282.646 78.073,282.324 78.214 C 282.002 78.354,281.167 78.737,280.469 79.065 C 279.771 79.393,278.804 79.836,278.320 80.049 C 277.540 80.392,275.840 81.170,274.121 81.970 C 272.363 82.788,272.039 83.081,271.673 84.180 C 271.327 85.220,269.481 89.798,267.756 93.890 C 267.293 94.988,266.972 95.943,267.041 96.013 C 267.111 96.082,268.468 95.254,270.058 94.173 C 274.574 91.103,285.902 83.545,287.257 82.697 C 287.929 82.277,289.687 81.137,291.163 80.164 C 295.979 76.989,302.598 72.858,304.158 72.054 C 305.193 71.520,305.555 70.916,304.671 71.197 C 304.462 71.263,304.297 71.223,304.297 71.107 C 304.297 70.823,304.215 70.841,302.539 71.482 M213.281 115.617 C 213.013 115.816,212.222 116.334,211.523 116.769 C 210.825 117.204,209.990 117.743,209.668 117.967 C 208.755 118.603,203.139 122.275,201.750 123.145 C 201.063 123.574,200.102 124.241,199.614 124.626 C 199.125 125.011,198.298 125.565,197.776 125.857 C 196.834 126.382,195.336 127.426,194.678 128.015 C 194.490 128.183,194.263 128.320,194.174 128.320 C 194.086 128.320,193.185 128.944,192.173 129.706 C 191.160 130.468,189.629 131.556,188.770 132.123 C 187.447 132.995,186.373 133.775,185.449 134.530 C 185.341 134.619,184.582 135.148,183.762 135.707 C 182.942 136.265,182.162 136.854,182.030 137.014 C 181.897 137.174,181.705 137.305,181.603 137.305 C 181.502 137.305,180.723 137.854,179.872 138.525 C 179.021 139.197,177.692 140.186,176.919 140.723 C 176.145 141.260,175.146 142.029,174.697 142.432 C 174.249 142.834,173.827 143.164,173.760 143.164 C 173.692 143.164,173.105 143.582,172.456 144.092 C 171.806 144.602,170.992 145.222,170.647 145.471 C 170.302 145.719,169.752 146.180,169.424 146.496 C 169.097 146.812,168.728 147.070,168.605 147.070 C 168.482 147.070,168.267 147.224,168.126 147.412 C 167.986 147.600,167.498 148.008,167.041 148.318 C 165.930 149.072,165.925 148.737,167.101 152.051 C 168.594 156.257,169.176 158.071,170.609 162.985 C 171.775 166.981,174.182 174.260,174.414 174.492 C 174.664 174.742,174.918 174.502,177.695 171.387 C 183.314 165.084,194.235 153.905,200.691 147.847 C 201.662 146.937,203.075 145.611,203.832 144.902 C 205.064 143.747,206.430 141.980,206.578 141.348 C 206.869 140.105,207.297 138.734,207.440 138.584 C 207.538 138.482,207.617 138.250,207.617 138.069 C 207.617 137.887,207.913 136.784,208.275 135.617 C 208.637 134.451,209.171 132.661,209.461 131.641 C 209.751 130.620,210.147 129.302,210.340 128.711 C 211.287 125.819,211.589 124.766,212.692 120.508 C 213.346 117.983,213.928 115.764,213.985 115.576 C 214.116 115.145,213.903 115.157,213.281 115.617 M294.434 171.690 C 261.356 175.020,238.092 198.069,233.615 231.945 C 230.602 254.748,234.908 277.066,245.087 291.406 C 253.798 303.679,256.964 306.970,264.403 311.488 C 280.617 321.337,308.634 323.392,327.304 316.102 C 344.993 309.194,358.312 293.602,360.838 276.844 C 362.367 266.697,357.296 259.756,348.340 259.738 C 341.810 259.725,338.315 262.789,335.390 271.094 C 329.324 288.319,317.640 297.072,300.712 297.070 C 293.296 297.070,283.520 294.369,280.614 291.517 C 280.266 291.175,279.459 290.505,278.822 290.028 C 275.109 287.248,272.189 283.778,269.341 278.760 C 268.777 277.766,268.248 276.953,268.165 276.953 C 267.732 276.953,265.546 270.963,264.636 267.285 C 261.739 255.568,261.753 238.448,264.672 226.563 C 269.912 205.218,285.153 193.220,304.883 194.908 C 317.915 196.024,326.103 202.050,334.071 216.391 C 339.273 225.753,341.785 227.759,348.340 227.788 C 357.134 227.828,362.363 220.050,360.260 210.059 C 356.703 193.158,338.428 177.483,317.008 172.960 C 311.190 171.732,300.174 171.112,294.434 171.690 M122.529 187.656 C 119.323 190.872,115.908 194.367,114.941 195.424 C 113.975 196.481,112.462 198.096,111.581 199.014 C 109.531 201.149,109.210 201.502,107.324 203.706 C 106.465 204.710,105.454 205.855,105.078 206.251 C 104.259 207.114,102.601 209.027,102.054 209.742 C 101.837 210.025,101.408 210.519,101.099 210.841 C 100.791 211.163,100.399 211.646,100.228 211.914 C 100.058 212.183,99.673 212.666,99.374 212.988 C 98.512 213.917,97.325 215.368,95.867 217.276 C 95.124 218.248,93.951 219.746,93.259 220.605 C 91.818 222.397,89.853 225.036,89.520 225.627 C 89.395 225.848,89.203 226.085,89.092 226.154 C 88.872 226.290,87.891 227.685,87.891 227.862 C 87.891 227.922,87.469 228.512,86.953 229.172 C 86.438 229.831,85.852 230.633,85.651 230.952 C 85.450 231.272,85.124 231.706,84.928 231.917 C 84.731 232.128,84.568 232.394,84.566 232.508 C 84.564 232.622,84.382 232.935,84.163 233.203 C 83.633 233.854,79.789 239.679,79.241 240.663 C 79.003 241.090,78.658 241.713,78.473 242.046 C 78.289 242.380,77.871 243.024,77.545 243.477 C 77.220 243.931,76.953 244.369,76.953 244.450 C 76.953 244.532,76.831 244.737,76.681 244.906 C 76.532 245.076,75.906 246.182,75.289 247.363 C 74.673 248.545,74.092 249.610,73.997 249.729 C 73.026 250.954,67.100 263.516,66.498 265.625 C 66.421 265.894,66.288 266.202,66.202 266.310 C 66.049 266.503,65.713 267.384,65.120 269.141 C 64.957 269.624,64.753 270.195,64.666 270.410 C 64.045 271.943,62.120 279.009,61.552 281.836 C 59.926 289.938,59.747 297.298,61.010 304.216 C 61.844 308.783,64.456 315.362,66.710 318.571 C 69.472 322.503,71.457 324.731,74.401 327.206 C 75.321 327.980,76.118 328.660,76.172 328.718 C 76.308 328.865,79.469 330.984,81.029 331.974 C 81.741 332.426,82.445 332.800,82.594 332.804 C 82.742 332.809,83.621 333.195,84.547 333.663 C 85.473 334.131,86.538 334.625,86.914 334.760 C 87.290 334.896,88.169 335.209,88.867 335.456 C 89.565 335.704,90.738 336.177,91.473 336.508 C 92.208 336.839,93.056 337.109,93.356 337.109 C 93.657 337.109,94.286 337.283,94.754 337.496 C 95.222 337.708,95.838 337.884,96.122 337.886 C 96.406 337.889,97.197 338.062,97.880 338.271 C 99.436 338.748,100.021 338.877,101.367 339.040 C 101.958 339.111,102.565 339.247,102.716 339.342 C 102.867 339.436,103.377 339.500,103.849 339.482 C 104.320 339.464,104.878 339.541,105.089 339.654 C 105.299 339.767,105.976 339.892,106.593 339.932 C 107.210 339.972,107.940 340.062,108.214 340.131 C 108.489 340.201,109.192 340.289,109.777 340.327 C 110.361 340.365,111.367 340.445,112.012 340.505 C 117.904 341.053,130.814 341.017,135.938 340.439 C 136.851 340.336,138.477 340.158,139.551 340.044 C 142.966 339.682,148.107 339.047,149.219 338.850 C 149.810 338.745,150.688 338.620,151.172 338.573 C 151.655 338.525,152.666 338.362,153.418 338.211 C 154.170 338.060,155.048 337.925,155.370 337.911 C 156.108 337.881,159.702 337.182,165.527 335.938 C 166.602 335.708,167.832 335.446,168.262 335.355 C 168.691 335.263,169.878 334.997,170.898 334.763 C 171.919 334.528,173.105 334.262,173.535 334.172 C 174.997 333.863,180.111 332.508,184.180 331.351 C 185.200 331.061,186.475 330.705,187.012 330.562 C 187.549 330.418,188.911 330.024,190.039 329.686 C 191.167 329.348,192.333 329.024,192.629 328.966 C 192.926 328.908,193.217 328.783,193.276 328.688 C 193.334 328.593,193.542 328.516,193.737 328.516 C 194.114 328.516,206.456 324.479,207.617 323.976 C 207.993 323.814,208.828 323.521,209.473 323.327 C 210.652 322.972,214.482 321.580,219.727 319.601 C 224.015 317.982,224.607 317.740,224.722 317.554 C 224.780 317.460,224.994 317.383,225.198 317.383 C 225.566 317.383,229.104 316.000,230.957 315.132 C 231.494 314.881,232.725 314.370,233.691 313.998 C 235.653 313.243,237.528 312.433,238.311 312.003 C 238.597 311.847,238.921 311.719,239.033 311.719 C 239.208 311.719,241.048 310.913,245.020 309.097 C 245.557 308.852,246.436 308.473,246.973 308.255 C 248.837 307.500,252.351 305.782,252.298 305.651 C 252.270 305.579,251.491 304.695,250.569 303.687 C 248.056 300.944,246.624 299.237,243.949 295.801 C 243.013 294.599,238.457 287.933,237.942 287.013 C 237.761 286.690,237.692 286.688,236.795 286.984 C 236.270 287.158,235.137 287.482,234.277 287.704 C 233.418 287.927,232.056 288.283,231.250 288.495 C 230.444 288.708,229.638 288.916,229.457 288.958 C 229.277 289.000,228.266 289.269,227.211 289.556 C 226.156 289.843,224.590 290.242,223.730 290.443 C 221.818 290.889,217.040 291.969,216.504 292.075 C 216.289 292.118,215.015 292.384,213.672 292.666 C 206.824 294.104,199.012 295.432,194.043 296.002 C 193.506 296.063,192.407 296.196,191.602 296.296 C 181.296 297.580,166.312 297.715,159.961 296.582 C 159.800 296.554,159.185 296.471,158.594 296.399 C 153.425 295.767,147.425 294.073,138.965 290.858 C 134.007 288.973,131.754 287.790,130.184 286.245 C 129.521 285.593,128.580 284.703,128.093 284.267 C 122.468 279.235,120.324 270.243,122.300 259.961 C 123.260 254.965,125.386 248.108,127.449 243.359 C 130.998 235.188,133.404 230.547,138.536 221.973 C 139.179 220.898,139.956 219.652,140.263 219.203 C 140.966 218.174,140.964 218.132,140.115 215.963 C 138.810 212.628,138.249 211.059,136.296 205.273 C 135.227 202.104,133.704 197.622,132.914 195.313 C 132.123 193.003,130.804 189.049,129.982 186.526 C 129.161 184.003,128.460 181.910,128.424 181.875 C 128.388 181.839,125.736 184.441,122.529 187.656 M355.469 236.858 C 354.663 237.244,354.101 237.593,354.219 237.634 C 354.487 237.727,357.772 236.552,357.922 236.310 C 358.172 235.905,356.833 236.204,355.469 236.858 M357.910 238.107 C 354.985 239.355,349.144 241.737,346.582 242.727 C 342.064 244.473,340.321 245.186,339.676 245.552 C 338.780 246.063,330.310 250.301,328.223 251.284 C 327.363 251.688,326.631 252.092,326.595 252.181 C 326.559 252.271,326.423 252.344,326.292 252.344 C 326.161 252.344,325.092 252.815,323.916 253.391 C 322.740 253.966,320.986 254.809,320.020 255.264 C 319.053 255.718,317.471 256.469,316.504 256.933 C 315.537 257.396,313.867 258.169,312.793 258.650 C 309.620 260.070,308.957 260.371,307.520 261.041 C 306.768 261.392,305.273 262.050,304.199 262.504 C 302.309 263.302,298.365 265.000,297.168 265.531 C 296.846 265.674,295.835 266.094,294.922 266.464 C 294.009 266.835,292.954 267.273,292.578 267.438 C 292.202 267.603,291.191 268.019,290.332 268.363 C 289.473 268.707,288.594 269.060,288.379 269.148 C 288.164 269.237,287.461 269.524,286.816 269.788 C 286.172 270.052,284.106 270.860,282.227 271.584 C 280.347 272.308,278.553 273.021,278.241 273.169 C 277.930 273.316,277.596 273.438,277.499 273.438 C 277.336 273.438,275.997 273.932,272.805 275.172 C 272.081 275.454,271.488 275.757,271.487 275.847 C 271.472 276.852,278.028 285.434,281.033 288.343 C 283.291 290.529,282.994 290.476,285.424 289.132 C 286.270 288.664,286.992 288.281,287.029 288.281 C 287.067 288.281,288.528 287.475,290.277 286.490 C 292.026 285.505,294.775 283.958,296.387 283.052 C 299.037 281.562,300.075 280.970,302.126 279.779 C 302.490 279.567,303.193 279.129,303.689 278.806 C 304.185 278.482,305.030 277.986,305.567 277.705 C 306.634 277.145,311.214 274.424,314.453 272.425 C 316.238 271.323,320.597 268.404,322.367 267.125 C 322.691 266.891,324.185 265.828,325.687 264.764 C 332.742 259.764,338.608 255.446,342.162 252.637 C 345.944 249.648,352.132 244.696,354.590 242.690 C 355.879 241.639,357.922 239.980,359.131 239.005 C 362.283 236.460,362.095 236.322,357.910 238.107 " stroke="none" fill="#000000" fill-rule="evenodd"></path></g></svg>